# xmcd
#
# Track frame offsets: 
#        150
#        23495
#        45865
#        63667
#        80117
#        95790
#        111900
#        130872
#
# Disc length: 2099 seconds
#
# Revision: 2
# Processed by: cddbd v1.5.2PL0 Copyright (c) Steve Scherf et al.
# Submitted via: ExactAudioCopyFreeDBPlugin 1.0
#
DISCID=65083108
DTITLE=Vox Dei - Es Una Nube, No Hay Duda
DYEAR=1973
DGENRE=Rock Progresivo
TTITLE0=Es una Nube, no Hay Duda
TTITLE1=El Faisan y la Codorniz
TTITLE2=Es Asi y no Hay Nada que Hablar
TTITLE3=Loco, Hacela Callar
TTITLE4=La Verdadera Historia de 'Sam El Montanes'
TTITLE5=Prometeme que Nunca me Diras Adios
TTITLE6=Por Sobre el Monte, Encima del Mar
TTITLE7=El Manana Es Otra Historia
EXTD=ROCK ARGENTINO
EXTT0=
EXTT1=
EXTT2=
EXTT3=
EXTT4=
EXTT5=
EXTT6=
EXTT7=
PLAYORDER=
